# xmcd
#
# Track frame offsets:
#	150
#	16071
#	29495
#	42313
#	60059
#	78428
#	99050
#	114158
#	129582
#	147678
#	167762
#	176654
#	187953
#	209077
#
# Disc length: 3128 seconds
#
# Revision: 0
# Processed by: cddbd v1.5.2PL0 Copyright (c) Steve Scherf et al.
# Submitted via: EasyCDDAExtractor 2010.4.0.0
#
DISCID=b40c360e
DTITLE=Jo Jo Reed - Back on the Scene
DYEAR=2000
DGENRE=zydeco
TTITLE0=Back on the scene with a brand new thing
TTITLE1=Hard head makes a soft behind
TTITLE2=Do your line dance
TTITLE3=Give the people what they want
TTITLE4=Is it really ever over
TTITLE5=Let's go zydeco [2000]
TTITLE6=Big boss man
TTITLE7=Still got it going on
TTITLE8=Fooling around
TTITLE9=Get on down
TTITLE10=Before you start another song
TTITLE11=Jump and bounce
TTITLE12=Are you ready to party
TTITLE13=What a woman wants in a man
EXTD=
EXTT0=
EXTT1=
EXTT2=
EXTT3=
EXTT4=
EXTT5=
EXTT6=
EXTT7=
EXTT8=
EXTT9=
EXTT10=
EXTT11=
EXTT12=
EXTT13=
PLAYORDER=
